#!OML:ASF F:\VICON\USERDATA\INSTALL\rory3\rory3.ASF
:FULLY-SPECIFIED
:DEGREES
647
root -0.895156 29.0562 -6.96112 3.56954 -15.9358 3.35843
lowerback 3.37183 0.854536 -3.01464
upperback 0.0616348 1.04477 1.22451
thorax -1.90448 0.554281 2.89891
lowerneck -14.1606 3.91569 -8.72227
upperneck 42.3506 9.26003 -0.572758
head 17.8159 2.18027 2.95122
rclavicle -1.40143e-014 1.03368e-014
rhumerus -31.3604 -11.5923 -76.3544
rradius 33.7246
rwrist 22.4815
rhand -19.0534 1.2974
rfingers 7.12502
rthumb 7.25359 -28.5583
lclavicle -1.40143e-014 1.03368e-014
lhumerus -29.9226 12.5785 74.9915
lradius 34.912
lwrist -0.853604
lhand -15.1416 28.2485
lfingers 7.12502
lthumb 11.0281 57.9388
rfemur -14.2342 5.53311 15.11
rtibia 33.2578
rfoot -17.7221 5.27775
rtoes 5.90595
lfemur -15.3989 -8.14565 -22.0664
ltibia 21.9784
lfoot -10.2646 -18.5436
ltoes -10.001
648
root -0.931855 29.0606 -6.96507 3.64098 -15.6021 3.26035
lowerback 3.25758 0.908236 -2.92851
upperback 0.0716019 1.12341 1.25274
thorax -1.83476 0.591624 2.8771
lowerneck -13.9872 3.93104 -8.69658
upperneck 42.2999 9.30277 -0.681121
head 17.7515 2.19858 2.89649
rclavicle 1.41137e-014 1.35174e-014
rhumerus -31.2201 -11.1423 -76.5139
rradius 33.6067
rwrist 22.4896
rhand -19.115 2.38699
rfingers 7.12502
rthumb 7.19418 -27.4707
lclavicle 1.41137e-014 1.35174e-014
lhumerus -30.053 13.2087 74.7297
lradius 34.894
lwrist -1.05699
lhand -15.1398 28.5413
lfingers 7.12502
lthumb 11.0299 58.2316
rfemur -14.0334 5.13806 15.3364
rtibia 32.9643
rfoot -17.599 5.47862
rtoes 5.61446
lfemur -15.5156 -8.44515 -21.7884
ltibia 22.0474
lfoot -10.0757 -18.6143
ltoes -8.57518
649
root -0.969549 29.0622 -6.97116 3.69301 -15.369 3.10992
lowerback 3.21427 1.00319 -2.83523
upperback 0.0961608 1.25602 1.32421
thorax -1.79436 0.656356 2.89249
lowerneck -13.9602 3.92437 -8.75504
upperneck 42.2855 9.36216 -0.778502
head 17.7421 2.20519 2.87196
rclavicle -3.8763e-015 -1.59028e-015
rhumerus -31.0015 -10.6443 -76.6696
rradius 33.5265
rwrist 22.5302
rhand -19.2643 2.76609
rfingers 7.12502
rthumb 7.05004 -27.0965
lclavicle -3.8763e-015 -1.59028e-015
lhumerus -30.204 13.7734 74.5232
lradius 34.955
lwrist -0.968851
lhand -14.69 28.8365
lfingers 7.12502
lthumb 11.4637 58.5031
rfemur -13.7996 4.99865 15.5835
rtibia 32.6847
rfoot -17.6548 5.5685
rtoes 5.98038
lfemur -15.5792 -8.62565 -21.4686
ltibia 22.1452
lfoot -10.1351 -18.6836
ltoes -8.51946
650
root -1.00879 29.0616 -6.97925 3.72529 -15.1649 2.92967
lowerback 3.23262 1.11604 -2.72987
upperback 0.0999182 1.41095 1.38105
thorax -1.81077 0.733292 2.88369
lowerneck -13.8284 3.93422 -8.8173
upperneck 42.1872 9.38565 -0.789791
head 17.6468 2.2191 2.87327
rclavicle -4.59193e-014 -4.77083e-015
rhumerus -30.7991 -10.3508 -76.8017
rradius 33.4509
rwrist 22.751
rhand -19.3241 2.50917
rfingers 7.12502
rthumb 6.99231 -27.3553
lclavicle -4.59193e-014 -4.77083e-015
lhumerus -30.489 14.1365 74.3152
lradius 35.1524
lwrist -0.579852
lhand -14.4821 28.8833
lfingers 7.12502
lthumb 11.6642 58.5386
rfemur -13.5536 5.07752 15.877
rtibia 32.4418
rfoot -17.7142 5.69478
rtoes 7.70987
lfemur -15.6467 -8.88537 -21.0955
ltibia 22.2752
lfoot -10.1853 -18.6706
ltoes -8.60722
651
root -1.04926 29.0578 -6.99204 3.75271 -15.0591 2.75093
lowerback 3.29785 1.31996 -2.64149
upperback 0.215182 1.68557 1.428
thorax -1.74714 0.867334 2.86832
lowerneck -14.0617 3.86866 -8.96429
upperneck 42.1401 9.33717 -0.688228
head 17.6657 2.19343 2.94668
rclavicle -1.61016e-014 3.18055e-015
rhumerus -30.3594 -10.2729 -76.9001
rradius 33.3163
rwrist 22.9012
rhand -19.2789 2.96755
rfingers 7.12502
rthumb 7.03597 -26.8955
lclavicle -1.61016e-014 3.18055e-015
lhumerus -30.4196 14.2209 74.3214
lradius 35.2569
lwrist -0.322224
lhand -14.6361 29.0639
lfingers 7.12502
lthumb 11.5157 58.7276
rfemur -13.4148 5.29375 16.1899
rtibia 32.2411
rfoot -17.5788 5.91316
rtoes 8.5472
lfemur -15.7153 -9.12613 -20.7164
ltibia 22.4317
lfoot -10.3043 -18.5274
ltoes -8.70393
652
root -1.08827 29.0518 -7.00559 3.7532 -14.9083 2.59293
lowerback 3.43896 1.45108 -2.52927
upperback 0.287578 1.86085 1.39299
thorax -1.75928 0.953004 2.75756
lowerneck -14.1619 3.8627 -8.82848
upperneck 42.0835 9.31381 -0.7098
head 17.6681 2.20715 2.91397
rclavicle -6.79844e-014 -9.54166e-015
rhumerus -29.9714 -10.0079 -77.2288
rradius 33.221
rwrist 22.8709
rhand -19.3399 3.80527
rfingers 7.12502
rthumb 6.97708 -26.0597
lclavicle -6.79844e-014 -9.54166e-015
lhumerus -30.4145 14.2903 74.1533
lradius 35.2182
lwrist -0.28944
lhand -14.8059 29.2296
lfingers 7.12502
lthumb 11.3519 58.9023
rfemur -13.272 5.45899 16.4949
rtibia 32.0618
rfoot -17.4705 6.03533
rtoes 7.81376
lfemur -15.7746 -9.25691 -20.3921
ltibia 22.6509
lfoot -10.7118 -18.5078
ltoes -9.86033
653
root -1.1232 29.0484 -7.01512 3.78795 -14.7631 2.48152
lowerback 3.51143 1.6567 -2.32355
upperback 0.347433 2.14149 1.40146
thorax -1.74998 1.09069 2.63456
lowerneck -14.2962 3.77012 -9.08783
upperneck 42.0946 9.26309 -0.628938
head 17.6941 2.1584 2.99413
rclavicle -2.94201e-014 7.95139e-016
rhumerus -29.7054 -9.75167 -77.2646
rradius 33.2557
rwrist 22.8354
rhand -19.4262 3.96872
rfingers 7.12502
rthumb 6.89373 -25.899
lclavicle -2.94201e-014 7.95139e-016
lhumerus -30.3411 14.3664 74.2859
lradius 35.0827
lwrist -0.399088
lhand -15.0168 29.344
lfingers 7.12502
lthumb 11.1486 59.0279
rfemur -13.1637 5.43213 16.7237
rtibia 31.9396
rfoot -17.3956 6.1862
rtoes 7.5674
lfemur -15.9122 -9.27959 -20.1422
ltibia 22.9199
lfoot -10.9489 -18.6507
ltoes -10.2367
654
root -1.1582 29.0454 -7.0215 3.81962 -14.6415 2.32563
lowerback 3.44212 1.66303 -2.1953
upperback 0.427047 2.15555 1.37721
thorax -1.62454 1.09412 2.5402
lowerneck -14.4151 3.88435 -8.84313
upperneck 42.1315 9.44729 -0.768999
head 17.7629 2.24607 2.92803
rclavicle 4.14466e-014 1.27222e-014
rhumerus -29.3026 -9.17522 -77.7053
rradius 33.2275
rwrist 22.9454
rhand -19.4466 3.68614
rfingers 7.12502
rthumb 6.87402 -26.1823
lclavicle 4.14466e-014 1.27222e-014
lhumerus -30.6348 14.5733 73.9816
lradius 35.2092
lwrist -0.335616
lhand -15.2644 29.6138
lfingers 7.12502
lthumb 10.9097 59.3104
rfemur -13.0628 5.2603 17.0013
rtibia 31.8512
rfoot -17.2692 6.38176
rtoes 8.31735
lfemur -16.024 -9.28317 -19.8697
ltibia 23.2238
lfoot -11.0837 -18.6365
ltoes -10.415
655
root -1.19388 29.0414 -7.0309 3.8182 -14.4468 2.27607
lowerback 3.45727 1.8525 -2.11243
upperback 0.421356 2.41145 1.4035
thorax -1.65223 1.22189 2.50667
lowerneck -14.1294 3.77801 -8.99402
upperneck 42.127 9.27985 -0.714443
head 17.6828 2.17639 2.93833
rclavicle 1.99779e-014 -1.43125e-014
rhumerus -29.1991 -8.96835 -77.6268
rradius 33.2417
rwrist 22.8657
rhand -19.6677 3.48711
rfingers 7.12502
rthumb 6.66059 -26.3881
lclavicle 1.99779e-014 -1.43125e-014
lhumerus -30.9137 14.3184 74.1731
lradius 35.2617
lwrist -0.465345
lhand -15.3334 29.7671
lfingers 7.12502
lthumb 10.8432 59.4672
rfemur -12.9637 5.04976 17.1893
rtibia 31.7579
rfoot -17.1488 6.48883
rtoes 9.06234
lfemur -16.1695 -9.37437 -19.7048
ltibia 23.554
lfoot -11.2267 -18.5513
ltoes -10.7219
656
root -1.23108 29.0405 -7.04101 3.80544 -14.2259 2.20503
lowerback 3.55934 1.85638 -2.08189
upperback 0.449737 2.41502 1.34885
thorax -1.6768 1.22319 2.43029
lowerneck -14.1083 3.84839 -8.66106
upperneck 42.0591 9.36302 -0.92247
head 17.6701 2.23922 2.79947
rclavicle -6.4605e-015 -1.35174e-014
rhumerus -28.7785 -8.51329 -78.0252
rradius 33.1337
rwrist 22.8412
rhand -19.9337 3.36485
rfingers 7.12502
rthumb 6.40383 -26.5183
lclavicle -6.4605e-015 -1.35174e-014
lhumerus -31.2046 14.3873 73.9249
lradius 35.2203
lwrist -0.652625
lhand -15.2943 29.6528
lfingers 7.12502
lthumb 10.8809 59.3509
rfemur -12.8393 4.90524 17.4268
rtibia 31.6408
rfoot -17.0926 6.46222
rtoes 9.09528
lfemur -16.3308 -9.508 -19.5014
ltibia 23.908
lfoot -11.2757 -18.4968
ltoes -10.3207
657
root -1.26499 29.0398 -7.05058 3.88543 -13.947 2.00877
lowerback 3.59705 1.9308 -1.83334
upperback 0.505597 2.52389 1.40079
thorax -1.63851 1.275 2.33829
lowerneck -14.2058 3.81179 -8.76619
upperneck 42.0697 9.38252 -0.951047
head 17.7007 2.22654 2.81371
rclavicle 1.77912e-014 7.15625e-015
rhumerus -28.3099 -8.15966 -78.1205
rradius 32.9684
rwrist 22.6613
rhand -20.3272 3.6217
rfingers 7.12502
rthumb 6.02391 -26.2727
lclavicle 1.77912e-014 7.15625e-015
lhumerus -31.3326 14.4359 74.0389
lradius 35.0484
lwrist -1.11483
lhand -15.5107 29.5842
lfingers 7.12502
lthumb 10.6721 59.2932
rfemur -12.7669 4.69811 17.7926
rtibia 31.5031
rfoot -17.0869 6.36198
rtoes 8.59051
lfemur -16.614 -9.79802 -19.1508
ltibia 24.2935
lfoot -11.166 -18.4068
ltoes -9.5119
658
root -1.3 29.039 -7.06463 3.96096 -13.5139 1.86771
lowerback 3.68662 1.91079 -1.75242
upperback 0.524746 2.50021 1.46675
thorax -1.66718 1.26293 2.35935
lowerneck -14.3205 3.81101 -8.78893
upperneck 42.139 9.4101 -0.920418
head 17.7663 2.23286 2.84465
rclavicle -3.97569e-016 4.77083e-015
rhumerus -27.9017 -7.71771 -78.2627
rradius 32.8406
rwrist 22.5368
rhand -20.8514 3.81943
rfingers 7.12502
rthumb 5.51784 -26.0887
lclavicle -3.97569e-016 4.77083e-015
lhumerus -31.5327 14.4881 74.1091
lradius 34.9152
lwrist -1.52026
lhand -15.7824 29.6646
lfingers 7.12502
lthumb 10.4101 59.3869
rfemur -12.7016 4.50893 18.1255
rtibia 31.3534
rfoot -17.0982 6.14357
rtoes 8.8922
lfemur -16.9993 -10.0741 -18.838
ltibia 24.675
lfoot -10.7904 -18.507
ltoes -8.37845
659
root -1.33401 29.0387 -7.072 3.93586 -13.0342 1.79059
lowerback 3.76599 1.85439 -1.71802
upperback 0.611608 2.42555 1.50284
thorax -1.61842 1.22407 2.38037
lowerneck -14.5424 3.81353 -8.76791
upperneck 42.175 9.46445 -0.946221
head 17.8478 2.24726 2.8509
rclavicle 6.4605e-015 -3.18055e-015
rhumerus -27.4061 -7.27469 -78.4258
rradius 32.8845
rwrist 22.7287
rhand -20.8197 3.39222
rfingers 7.12502
rthumb 5.54838 -26.5151
lclavicle 6.4605e-015 -3.18055e-015
lhumerus -31.6729 14.5819 74.1341
lradius 34.7606
lwrist -1.8031
lhand -15.8612 29.5198
lfingers 7.12502
lthumb 10.334 59.2458
rfemur -12.5064 4.19559 18.3836
rtibia 31.2048
rfoot -17.1148 6.00042
rtoes 9.07775
lfemur -17.2453 -10.2103 -18.6493
ltibia 25.0573
lfoot -10.5384 -18.5833
ltoes -7.60719
